<svg width="562" height="766" viewBox="0 0 562 766" fill="none" xmlns="http://www.w3.org/2000/svg">
<path d="M243.5 1.39996C234.8 3.49996 229.2 5.59998 223.8 9.09998C210.5 17.7 203 32.8 203 51.3C203 62.1 204.9 69.9 210 80.5C216.2 93.3 224.5 102.6 247.1 122C277.3 147.8 283.1 154.2 291.4 170.7C299.9 187.6 302.6 207.6 298.6 223.7C295.8 235.1 295.2 235.4 289.8 227.9C280.5 214.9 273.2 209 262.8 206.4C257.3 205 251.3 205 246 206.6C244.9 206.9 243.7 205.5 242.1 202.3C237.1 192 228.5 180.2 219.1 171C195.8 147.8 164.4 133.6 115.4 124C98.6 120.7 86.2 120.2 71 122C31.8 126.9 9.39999 144.1 1.99999 175.2C0.199986 182.7 0.0999866 184.9 0.999987 190.5C3.59999 206.7 12.3 219.1 25.6 225.6C39.7 232.5 52.8 232.8 82.7 226.9C113.5 220.9 120.6 220.8 150 225.8C187.1 232.2 200.1 236.9 211.2 248C214.4 251.2 217 254.3 217 254.8C217 255.3 212.7 259 207.5 262.9C176.8 285.9 151.5 312.8 133.5 341.5C126.9 351.9 116.3 373.4 112.7 383.5C111.3 387.3 109.7 391.7 109.1 393.2L108.1 396L90.9 387.5C59.6 372.1 41.6 368.2 22.7 372.7L15.5 374.4L28.1 375.1C49.9 376.3 70.2 382.5 94.5 395.4L106.5 401.7L107.2 409.1C108.1 417.4 109.6 419.8 112.9 418.1C114.9 417 115 417.1 115 423.7C115 427.5 115.9 433.8 117 437.9C118.2 442 118.7 445.6 118.3 446.1C117.2 447 85 461.8 73.6 466.5C68.8 468.5 59.6 471.9 53.3 474C42.3 477.7 41.9 477.9 45.3 478.5C50.1 479.4 64.7 477.4 72.9 474.7C76.5 473.6 85.4 469.5 92.5 465.8C99.7 462.1 109.6 456.9 114.6 454.4L123.7 449.9L127.1 451.9C129 453.1 131.5 454 132.6 454C134.1 454 136.4 456.2 139.9 461C146.5 469.9 154.7 477.1 165.6 483.7C176.2 490.2 186.8 494.3 203.3 498.5L216 501.7L209.6 504.9C198.3 510.4 192.8 518.6 194.4 527.4C195 530.3 195.8 531.1 199.8 532.8C202.4 534 209.7 536 215.8 537.4C222 538.8 229 540.8 231.3 541.8L235.5 543.7L225 544.2C209.4 545 200 549.9 198.4 557.9C197.9 560.5 197.8 560.5 188.2 560.5C179.3 560.5 178.1 560.7 173.1 563.5C163.1 569 158.9 580.5 163.9 588.7L165.8 591.8L158.7 588.5C145.9 582.7 139.5 581.5 120.5 581.5C104.7 581.6 102.9 581.8 95.3 584.3C74.9 591.1 63.9 604.4 63.8 622.5C63.8 629.6 64.2 630.9 66.2 629.2C67.1 628.5 69.1 628.6 73 629.6C80.8 631.6 90.3 631.3 108 628.5C128.2 625.3 141.4 624.5 152.5 625.9C177.1 628.9 195.3 637 221.6 656.8C232.8 665.2 234.6 666.2 239.3 666.7C244 667.2 244.9 666.9 247.7 664.6C251.6 661.3 253.9 654.8 254.6 645C255.6 631.1 255.4 631.4 261.6 628.5C272.6 623.3 281.1 621.7 298 621.7C315.9 621.6 328.3 623.8 343.4 629.6C359 635.6 372.9 645.2 378 653.5C379.9 656.5 380 657.4 379 661.2C376.1 671.9 370.1 677.9 352.1 688C335.4 697.3 335.2 695.5 353.9 705C380.4 718.5 407.1 737.3 429.7 758.4C437.7 765.9 437.9 766 443.2 766C460.1 765.9 476.9 757.8 488 744.3C492.9 738.4 493.2 734.9 489.1 729.3C479.9 716.6 466.2 711.5 425.5 705.5C404.6 702.5 393.4 700.4 388 698.4C387.2 698.1 391.8 695.6 398.5 692.6C415.4 685.2 421.4 682 431.6 675.1C441.9 668.3 453.6 656.5 456.8 649.9C462.9 637.2 456.1 621.3 441.5 614C438.8 612.6 436.3 611.4 436.1 611.3C435.9 611.2 436.7 609.9 437.9 608.4C439 606.9 440 605.2 440 604.5C440 603.8 441.2 602.9 442.8 602.5C451.6 600.3 456.5 592.9 455.8 582.6C455.5 577.5 454.8 575.5 452.6 572.5C448.7 567.4 444.4 565 439.1 565C435.4 565 434.9 564.8 435.5 563.2C439 555 439.8 550.7 438.1 548.1C436.2 545.1 421.8 550.3 412 557.5C409.4 559.4 407 561 406.6 561C406.3 561 406 556.3 406 550.5C406 533.9 402.2 518.6 393.4 500.1C391 495 389 490.6 389 490.4C389 490.3 391.2 491.6 394 493.5C401 498.2 409.5 501.2 416 501.2C422.9 501.2 438.2 497.7 447.9 493.8C470.3 485 487.1 469.5 498.8 447.2C504.8 435.7 510.2 420.2 512.7 407.2L514.5 397.8L526 391C547 378.6 553.4 372.9 558.5 361.9C562.2 353.8 562.5 349.5 560.1 339.9C555.5 321.9 546.1 307.2 532.7 297.3C528.1 293.9 527.8 293.8 520.2 294.2C497.4 295.4 482.1 316.7 482 347.4V353.5L480.1 349.5C478.8 346.6 471.1 325.8 468.6 318.3C468.3 317.6 456.4 320.7 452.3 322.6C441.7 327.6 435.7 338.7 437.9 349.1C440.6 361.4 445.8 367 464 377C475.8 383.5 482.3 388.3 485.7 393.2C488.1 396.7 488.2 397.6 487.7 403.8C486.9 413.8 484.4 422.3 479.5 432.5C470 452.2 451.9 466.2 426.1 473.6L416.9 476.2L407.8 473.9C394.5 470.7 384.4 465.3 377.6 457.9L371.9 451.8L383.7 440.2C400.8 423.2 411.9 407.8 419.1 391C420.7 387.2 423.1 382.4 424.5 380.4C429.1 373.6 429.9 367.5 427.5 357.2C425.8 350 423.2 344.5 418.4 337.9C415.3 333.6 415.1 333 416.1 330C416.8 328.1 417 324.1 416.7 320.1L416.1 313.5L426.3 306.5C447 292.2 469.7 274.4 468.6 273.3C468 272.6 445 286.7 427.8 298.2C419.7 303.6 412.7 308 412.2 308C411.7 308 409.7 305.6 407.7 302.7C405.7 299.8 402.5 295.9 400.5 294C398.6 292.2 397 290.1 397 289.4C397 287.8 410 275.6 429 259.6C438.1 251.9 449.4 242.1 454.2 237.8C462.8 230 477.7 213.3 476.8 212.5C476.3 211.9 456.3 226.9 445 236.3C431.5 247.5 412.3 265 402 275.4C396.8 280.7 392.2 285 391.9 285C391.5 285 388.5 282.7 385.2 280C369.2 266.7 352.1 258.8 331.7 255.5L327.9 254.9L330 251.7C334.6 244.8 344.1 223.9 347.9 212.5C352.1 199.6 355 187.1 357.5 171.3C359.7 157.6 360.6 124.1 359.1 111C352.3 51.4 326.9 14.2 285.3 2.89996C275.1 0.199963 252.3 -0.600037 243.5 1.39996ZM274.5 8.20001C308.5 13.4 331.6 34.9 344.3 73.1C352.1 96.5 355.5 117.7 354.7 137.9C353.6 165.2 348.8 185.8 333.4 228.8C328.2 243.2 324 255.4 324 255.8C324 256.3 328.4 258.4 333.8 260.5C355.8 269.1 374.7 279.9 383.2 288.7L386.9 292.5L381.9 299C377.2 305 374 310.1 374 311.5C374 313.4 376.7 311 382.1 304.2C385.5 300 388.7 296.1 389.1 295.6C390 294.6 407 310.6 407 312.3C407 312.9 404.3 316.1 401 319.6C395 325.9 393.5 328.6 396.8 327.6C398 327.2 398.9 327.9 399.9 330C400.6 331.8 402.8 333.9 405 335C409.7 337.4 413.6 342 416.7 348.7C420.6 357.2 420.7 362.1 417 372.5C410.1 392.2 399.6 408.1 382 426.1C371.8 436.5 350.1 455.4 349.3 454.6C349.1 454.4 351 450.5 353.4 445.9C365.4 423.4 371.6 391.2 369.1 364.5C368.5 357.9 367.3 349.9 366.6 346.8C365.8 343.1 365.5 337.7 365.8 331.8C366.3 320.8 364.8 309.7 361.8 303.4C359.7 298.8 354.7 293 352.8 293C351.6 293 352.4 298.6 355.7 311C358.7 322.6 358.4 333.1 354.6 352.2C342.2 413.5 306 448.6 245.7 458.1C226.7 461 199.5 453.7 175.6 439.2C171.9 436.9 168.5 435 168.2 435C167.9 435 169.2 436.6 171.1 438.6C175.5 443.2 188.9 452.1 196.5 455.5C212.5 462.6 234.6 465.6 252.8 463.1L261.7 461.9L269.5 466.6C280.5 473.3 290.7 477 300.4 477.9L308.5 478.7L300.9 482.3C270.8 496.7 223 498.5 187.4 486.5C164.1 478.7 148.7 467.7 140 452.6C135.7 444.9 135.9 443.7 142.5 441C145.7 439.7 148 438.1 148 437.3C148 435.3 143.7 436.1 135.5 439.5C132.2 440.8 128.8 442 127.8 442C126.8 442 125.3 440.1 123.9 437.3C122 433.3 121.6 431 121.7 422.7C121.7 417.1 122.2 412.4 122.9 411.7C123.6 411 127.2 412.3 135.2 416.3C141.5 419.3 147.9 422.2 149.5 422.6L152.5 423.3L149.7 420.3C148.2 418.7 142.9 415.2 138 412.6C132.4 409.7 127.8 406.4 125.6 403.9C122.6 400.3 121.8 399.9 119.2 400.4C117.2 400.9 115.9 400.6 115 399.5C113 397.1 116.8 381.4 121.9 370.4C125.1 363.6 136.5 345 137.4 345C137.5 345 137.6 349.4 137.6 354.7C137.5 390.8 168.3 414.5 197.6 400.9C204.2 397.8 214.8 387 218.3 379.8C221.3 373.6 223.9 363.5 224 358C224.1 354.7 224.2 354.8 225.9 360C233.4 383.4 253.1 399 275.3 399C293.4 399 311.2 387 319.8 369C324.6 358.8 326 352.7 326 341.2C326 306.2 297.9 279.5 266.8 284.8C251.3 287.5 237.4 298.2 230 313.3C225.9 321.6 223.1 332.2 223 339.5C223 343.4 222.9 343.4 220.6 336.9C216.4 325 206.8 314.1 196.2 309.2C188.4 305.6 176.8 305 168.8 307.7L163.1 309.7L168 304.1C178.8 291.7 193.1 279 206.6 270C210.6 267.2 215 263.6 216.2 262C217.7 259.9 218.9 259.2 220.4 259.5C224 260.4 225.4 258.7 224.7 254.1C224 248.4 222 245.7 214.2 240C192.4 224 158.7 215 120.5 215C103.4 215 91 216.3 74.5 220C56.5 223.9 51 224.4 41.4 222.7C31 220.8 23.2 217.1 16.9 210.9C11.1 205.3 6.19999 195.7 5.29999 188.3C3.59999 173.7 17.6 151 34.4 141.1C42.1 136.5 55.6 131.5 66 129.4C85.5 125.5 128.1 131.3 155.7 141.6C190.1 154.4 216.2 175 236.1 205C241.6 213.2 244 216 247.3 217.7C249.6 218.9 253.7 221.7 256.4 223.9L261.2 228H255.7C248.6 228 240.7 229.7 235.5 232.2C230.5 234.7 224 240.9 224 243.1C224 249.4 259.3 252.5 269.8 247.1C272.1 245.9 274 244.5 274 244C274 242.3 269.1 241.7 261.6 242.4C244.6 244 239.4 244.2 236.7 243.1C234.3 242.2 234.1 241.8 235 239.9C235.7 238.8 238.2 236.9 240.8 235.8C245.6 233.6 249.3 233.6 270.8 235.6C275.6 236.1 278 235.9 278 235.2C278 232.9 268.6 225 259 219.1C253.5 215.7 249 212.5 249 212C249 210.3 258.5 210.9 265.1 213C275.2 216.1 285.1 225.5 292.8 239.2C296.4 245.7 298.4 245.5 301.5 238.4C311.8 215.1 309.2 184.9 294.8 160.6C286.1 145.8 276.3 135.6 253 117C236.1 103.6 229.5 97.4 223.6 89.7C202.1 61.6 204.5 25.9 228.9 13.5C242.4 6.7 255.1 5.20001 274.5 8.20001ZM287.4 295C315.1 303.6 328.2 339.8 313.9 368.2C305 385.9 285.8 396.3 268.2 393.1C245.6 388.9 229.6 368.2 229.7 342.9C229.8 328.3 234.3 316.7 243.9 306.7C255.7 294.3 271.4 290.1 287.4 295ZM527.6 302.6C540.5 311.2 549.4 327.4 551.6 346.6C552.9 357.1 546.3 366.4 527.6 380.4C512.2 392 511.2 393.3 505.6 408.5C499.7 424.4 490.8 443.5 484.8 452.6C470.7 474.3 451.9 488 428.7 493.2C414.9 496.3 413.5 495.9 393.5 482.2C388.7 478.9 384.8 477 383 477C381.4 477 379.5 476.2 378.8 475.2C375.7 470.9 375.1 472.3 377.8 477.7C386.4 494.8 395.3 522.9 398 541.8C398.8 546.8 399.1 555.7 398.8 563.8C398.2 580 395.4 590.1 388.6 600.3C385 605.5 383.9 606.6 381.1 606.8C379.3 607 378 607.6 378.2 608.2C379 610.6 386.2 611.9 397.8 611.9C418.8 611.9 434.2 616.6 444.7 626.3L449.2 630.5L448.8 638C447.6 657.5 434.9 668.3 396.5 683C380.2 689.3 368.4 694.8 363.4 698.5C360.5 700.8 360.1 700.8 355.4 699.5C352.7 698.8 349.2 697.9 347.6 697.5C344.9 696.9 345.6 696.4 356.7 691C370.6 684.2 379.7 676.6 384.4 667.9C386.9 663.4 387.2 662 386.7 657C386.1 649.5 382 641.9 375.9 636.8C369.6 631.5 348.9 622.4 335.5 619C318.9 614.8 309.6 613.7 294.2 614.2C278.6 614.8 271.1 616.7 262.1 622.7L256.7 626.2L257.4 622.6C258.2 618.6 257.3 618.1 253.5 620.6C250.3 622.7 248.3 628.6 247 640C245.7 650.9 243.1 658 240.2 658C236.2 658 224.2 650.8 215 643C202.4 632.2 197.2 629.4 183.6 626C167.9 622 154.1 620.2 137.5 620.1C125.8 620 120.8 620.4 107 623C97.9 624.6 87.9 626 84.7 626C77.7 626 70 624.2 69.3 622.4C68.4 620 75.2 609.1 81.4 603.2C97.8 587.4 121.9 583.5 149 592.2C159.8 595.7 172.1 602.4 191.3 615.4C201.3 622.2 211.4 628.7 213.8 629.9C217.8 631.9 218 631.9 218 630.2C218 626.6 211.8 616 207.7 612.5C205.4 610.5 198.4 605.5 192.1 601.3C175.5 590.4 166.9 580.7 169.7 576.1C173 570.8 187 567.4 201 568.5C228.8 570.7 252.1 577.8 264 587.8C267.3 590.6 267.4 590.9 266.1 593.4C264.1 597 265.7 598.5 270.6 597.5C277.2 596.3 285.2 587 296.3 567.4C305.7 550.7 312.1 541.1 318.5 533.9C320.3 531.9 323.5 526.8 325.5 522.6C329 515.6 329.5 515.1 331.8 515.7C334.3 516.3 334.3 516.3 333.6 511.1C332.9 505.4 329.4 495.4 327.9 494.5C326.1 493.4 319.8 497.4 315.7 502.2C311.8 506.9 311.5 507 310.8 504.9C309.9 502.4 310.3 499.3 312.7 491.4C314.2 486.4 314.4 486.2 321.8 482.7C332.7 477.6 345.8 469.9 358.2 461.4L368.9 454.1L371.1 458.6C373.5 463.7 382.5 471.7 390.1 475.5C409.9 485.6 438 481.3 460.1 464.9C463.9 462.1 471 455.6 476 450.3C490.6 434.8 497.3 422 498.5 407.3C499 401.2 498.8 400 496.3 395.5C494.6 392.4 492.2 389.9 490.3 388.9C488.5 388 485.3 385.5 483.2 383.3C480.7 380.8 475.2 377.4 467.8 373.7C455 367.5 449.9 363.6 446.9 357.9C444.1 352.4 443.3 343.2 445.3 339.3C447.8 334.5 456.7 325.3 460 324.1C462.9 323.2 463.1 323.3 465.6 327.6C467.1 330.1 470.7 338.8 473.7 346.8C479 361.3 483.3 370 485.7 370.8C487.8 371.4 489.2 365.9 488.7 359.5C488.4 356.2 488.5 347.7 489 340.6C489.8 329.5 490.4 326.8 493 321.3C498 310.4 511.6 299 519.3 299C520.9 299 524.6 300.6 527.6 302.6ZM192 315.6C198.2 317.5 205.7 323.5 210.3 330C221.2 345.7 221 369.3 209.6 384.7C201.8 395.4 191 400.6 178.4 399.8C169.1 399.2 162 395.8 155.3 388.7C146 378.9 142.5 368.8 143.2 353.9C143.6 345.4 144.1 343.3 147.3 336.6C156.3 317.7 173.2 309.7 192 315.6ZM347.4 407.1C354.5 412.7 346.2 428.2 335.3 429.7C331.8 430.2 331 429.9 329.2 427.5C328 426 327.4 424.2 327.8 423.6C334.2 413.2 341.3 405.1 344.1 405C344.5 405 345.9 405.9 347.4 407.1ZM318.6 436.2C317.7 440.9 313.6 446.6 309.1 449.4C303.9 452.7 295 455.2 289.8 454.8L285.5 454.5L292.5 450.2C296.4 447.9 303.7 443.1 308.8 439.5C313.9 435.9 318.4 433 318.7 433C319 433 319 434.5 318.6 436.2ZM306.5 492.2C304.9 497.7 304.8 508.5 306.3 512.3C308.9 518.4 310.6 518.2 317.1 510.9C320.3 507.4 323.2 504.8 323.5 505.2C324.7 506.3 321.2 516.3 317.6 522.2C315.7 525.3 310.8 532.2 306.6 537.5C302.4 542.8 298.6 547.8 298.2 548.7C297.5 549.9 296.4 549.3 292.5 545.1C284 536 275.2 532.2 247.3 525.4C237.3 523 227.6 520.4 225.8 519.7L222.5 518.4L233 514.3C238.8 512 248.9 508.5 255.5 506.5C262.1 504.5 276.1 500.1 286.5 496.6C297 493.1 305.9 490.2 306.4 490.1C306.8 490.1 306.9 491 306.5 492.2ZM227.4 507C222.3 509.5 217.9 512.5 215.5 515.1L211.7 519.3L214.1 521.3C218.8 525.2 228.9 529.1 240.6 531.6C272.7 538.5 281.1 541.4 287.5 548C291 551.6 291.2 552.2 290.6 556.2C289.6 562.7 285.8 569.6 278 579C274.2 583.6 271 587.8 271 588.3C271 588.8 268.7 587.1 265.9 584.6C255.7 575.4 241.5 569.4 218.7 564.7C212.2 563.3 206.6 561.9 206.2 561.5C204.9 560.2 208.6 555.4 212.5 553.5C216.1 551.7 218.2 551.5 235 551.8C245.7 551.9 254.1 551.6 255 551C256.2 550.2 255.8 549.4 252.5 546C246.8 540.1 237 535.8 218.4 531C209.5 528.7 201.7 526.4 201 526C199.9 525.3 199.8 524.6 200.9 522.4C205.8 511.5 218.7 503.2 231 503.1L235.5 503L227.4 507ZM431.5 556.2C430.4 559.6 426.2 563.8 420.3 567.1C415 570.1 414 571.6 416.1 573.7C416.8 574.4 418.5 574.4 421.7 573.4C428.2 571.4 436.7 571.7 441.7 574C446 575.9 450 580.9 450 584.2C450 587.7 444.1 592.8 437 595.5C430.3 598.1 430 598.3 430 601.5C430 604.7 429.8 604.9 425.3 605.8C422.6 606.4 415.1 606.6 408.5 606.3L396.5 605.7L399.2 600.1C402.1 594.1 405 581.6 405 575.1C405 571.5 405.6 570.6 410.4 566.3C415.1 562.2 428.8 554.1 431.3 554C431.8 554 431.8 555 431.5 556.2ZM381.8 707C386.8 708.2 433.2 716.5 446.5 718.6C463.6 721.3 469.7 723.6 474.8 729.4C479.2 734.4 479.5 736.3 476.8 741.3C473.8 746.8 466.5 751.1 455.8 753.8L447.5 755.9L440.9 753.1C431.7 749.2 422.6 742.9 409 730.9C396.4 719.8 387.8 713.4 379.8 708.9C374.2 705.9 374.7 705.4 381.8 707Z" fill="black"/>
<path d="M279 307.9C271.4 310.2 264.4 316.6 260.8 324.5C257.4 331.9 257.6 343.5 261.1 351.1C266.3 362.2 274.2 367.5 285.5 367.5C291.3 367.5 293.3 367 297.2 364.8C310 357.2 315.5 340.3 309.8 325.3C305 312.5 290.7 304.4 279 307.9ZM289.1 316.9C291.4 319.2 292 320.7 292 324C292 329.5 289.7 333.5 286 334.8C282.6 336 280.5 335.6 277.4 332.8C275.4 331 275.3 331 274.2 333.6C273.3 335.4 272.3 336 270.8 335.8C267.7 335.3 266.4 332.7 267.8 329.6C269.1 326.6 272.4 326.2 273.9 328.7C274.7 330.1 274.8 329.6 274.3 326.8C272.7 316.5 282.2 310.1 289.1 316.9Z" fill="black"/>
<path d="M181.5 325.9C165.6 333.1 162.2 357 175.2 370C179.4 374.3 183.7 376 190 376C202.7 376 212.3 364.7 212.2 350C212.2 338.9 207.3 330.4 198.6 326.4C192.5 323.6 186.9 323.4 181.5 325.9ZM191.5 330.6C193.5 331.4 196 336.2 196 339.2C196 340.5 195.1 343 194 344.7C192.4 347.4 191.4 348 188.5 348C186.2 348 184.4 347.3 183.3 346C181.7 344.1 181.6 344.1 180.5 346.3C179.9 347.5 178.6 348.5 177.5 348.5C174.7 348.5 174.6 341.7 177.4 341.2C178.4 341 179.6 341.4 180.1 342.2C180.7 343 181 342.1 181 339.4C181 332.4 185.8 328.4 191.5 330.6Z" fill="black"/>
</svg>
