<svg width="560" height="744" viewBox="0 0 560 744" fill="none" xmlns="http://www.w3.org/2000/svg">
<path d="M277.5 1.89989C264.8 5.59989 256.8 11.8999 252.2 21.8999C245.7 35.6999 249.8 64.7999 261.9 90.4999C264 94.9999 270.4 106.7 276 116.6C295.9 151.1 302.3 168 304.5 192L305.1 198.5L301.6 200.7C299.6 202 297.6 203 297.2 203C296.7 203 296 199.2 295.8 194.7C295.5 190.1 294.7 185.3 294.1 184.2L292.9 182L289.1 183.9C284 186.5 279.7 191.6 275.3 200.3L271.7 207.5L270.5 200.5C264.4 165.7 240.9 141 197.4 123.6C175 114.7 149.9 110 120.9 109.3C99.3 108.7 88.8 109.6 75.8 112.9C61.4 116.6 56.9 118.9 50.4 125.5C43.3 132.7 41 138.1 41 147.5C41 152.7 41.5 154.4 44.8 159.9C57.8 182.1 83.7 196.3 132.3 208.1C199.1 224.1 203.5 225.4 220.8 233.6L230.2 238L226.1 242.6C222.1 247.2 218 256.1 218 260.2C218 261.6 214.7 265.7 208.4 271.8C196.2 283.8 185.5 296.7 176.7 310C168.9 321.7 156.5 346.7 152.9 357.7L150.5 365H146C136.3 365 98.6 367.1 81.5 368.5C55 370.8 15.8 376.7 14 378.7C12.8 380.1 59.5 377.9 80.5 375.5C112.7 372 121.7 371.2 136.1 370.4L148.7 369.7L148.8 381.1C148.8 389.2 149.4 394.4 150.8 399C151.8 402.6 152.9 406.1 153.1 406.9C153.6 408.7 154.5 408.5 101 419.6C78.2 424.3 51.9 430.2 42.5 432.5C23.7 437.3 -0.500034 444.8 0.299966 445.7C1.19997 446.5 29.1 442.2 52.5 437.5C75.3 432.9 112.9 423.8 145.2 415.1C155.4 412.3 164.2 410 164.7 410C165.2 410 166.4 412.2 167.4 414.9C168.4 417.7 171.6 423.6 174.6 428.1C177.6 432.6 179.8 436.5 179.7 436.7C179.5 436.9 171.5 437.9 161.9 439C129.1 442.7 113 447.4 100.3 457.1L95 461.1V466.8C95 475.3 98.4 481.3 109.4 492.2C114.4 497.2 117.7 501 116.8 500.7C105.8 497 97.8 494.9 96.6 495.3C94 496.3 82.7 511.5 78.3 519.7C72 531.5 69.7 541.2 70.3 552.9C70.6 558.2 71.3 564.2 72 566.3C73.6 571.7 79.1 577.3 85.3 580.1C89.9 582.2 92 582.5 103 582.5C116 582.5 124.9 580.6 134.1 575.9L137.7 574.1L137.3 578.4C137 580.8 137.3 585.8 137.9 589.5C138.6 593.2 139 596.4 138.8 596.5C138.6 596.7 134.7 595.8 130.1 594.4C117.8 590.9 104.3 591.5 101.6 595.8C100.7 597.3 102.3 601 106.4 606.3C110.6 611.8 110.6 612 108.1 612C104.5 612 97.5 615.1 94.3 618.2C90.9 621.5 88.4 629.3 89.4 633.4C89.7 634.8 91.6 636.8 93.5 638C95.4 639.2 97 640.3 97 640.5C97 640.7 91.5 644.1 84.8 648.1C49.8 668.7 33.9 683.5 23 705.5C17.3 716.9 13.6 729.8 14.9 733.3C17 738.7 24.8 743.1 33.7 743.8C45.3 744.7 62.9 737.3 79.9 724.2C84 721.1 95.3 710.8 105 701.5C125.5 681.5 129.1 678.5 147 665.8C183.7 639.8 208.5 629.7 242.8 626.9C249.9 626.4 258.7 626.3 262.8 626.7L270.2 627.5L268.1 630.2C264.6 634.6 265.3 636.6 271.3 638.8C279.1 641.7 288.5 643.6 309.5 646.5C330.2 649.3 341.7 651.7 349.8 654.9C356.2 657.5 368.5 665.1 386.5 678C409 694 427.4 702 441.8 702C449.4 702 454.1 700 457.6 695.4C461.8 689.9 461.8 685.6 457.5 676.9C439.5 641.3 408.6 622.7 361 619.2L351.5 618.5L357.5 614.4C366.4 608.3 371.9 602.3 375.3 595.2C378 589.4 378.2 588.1 377.7 582C376.3 565 365.8 554.6 346.6 550.9C336.4 549 308.8 550.5 298.8 553.6C297.4 554 297.1 552.8 296.5 545.3C295.8 535.9 293.4 515.3 292.4 510.5L291.8 507.5L297.3 507.8C300.3 508 303.7 507.7 304.8 507.1C306.5 506.2 306.6 505.5 305.8 501.1C305.3 498.4 303.8 492.9 302.5 488.9C301.1 484.9 300.1 481.6 300.3 481.4C300.4 481.3 304.1 480.9 308.5 480.5L316.5 479.8L323 484.6C326.6 487.2 333.6 492.9 338.5 497.3C356.4 513.2 367.2 519.6 381.1 522.4C388 523.8 390.1 523.8 401.6 522.5C441.3 517.8 471.7 504.6 494.1 482.1C507.5 468.7 516.2 455.1 523.7 435.6C527 427.1 527.2 425.9 526.7 418C526.1 407.5 523.4 399.6 517.4 390.7C508.2 377.3 500.4 372.6 483 369.9C474.6 368.6 461.5 369.3 454.5 371.5C452 372.2 450 372.5 450 372.2C450 371.8 451.1 368.1 452.3 364L454.6 356.5L462.6 353.8C473.8 350.1 486.2 348.2 512 346.5C536.3 344.9 553.5 343.2 557.8 342.1C560.1 341.5 559.6 341.2 555 340.7C528.3 337.6 490.6 339.9 464.1 346.1C459.5 347.1 455.6 347.9 455.5 347.8C455.3 347.6 455 340.6 454.8 332.2C454.5 318.1 454.6 317 456.3 317C457.3 317 459.4 316.3 461 315.5C466.2 312.8 465.9 303.1 460.4 293.2C458.2 289.1 458.2 288.7 459.6 286.5C461.1 284.3 461 283.6 459 277.5C456.3 269.4 448.5 257.5 442.3 252.1C430.1 241.3 416.4 234.5 386.7 224.5L364 216.7L366 213.6C376.5 197.8 380.8 179.6 381.7 148.3C383.3 92.3999 371.8 47.2999 349.8 23.3999C340.8 13.6999 326.9 5.69989 312.6 1.99989C302.4 -0.600109 286.2 -0.600109 277.5 1.89989ZM311.6 9.99989C341.9 18.2999 360.3 41.9999 368.9 84.2999C374 108.9 376 147.2 373.2 167.2C370.4 187.2 363.4 204.9 354.3 215L349.6 220.2L351.8 222C353 223 357.1 224.5 361 225.5C364.8 226.4 368.2 227.5 368.4 227.9C368.7 228.3 364.1 228.6 358.2 228.6C341.1 228.5 328.2 233.7 318.7 244.3C315.2 248.2 314.9 248.4 313.8 246.6C311.4 242.4 304.5 235.8 299.1 232.6C283.3 223 262.2 221.7 244.4 229.1L237.3 232.1L231.3 228.5C217.5 220.3 197.8 213.8 164 206.5C108.6 194.4 88.6 187.7 71.5 175.5C60.3 167.5 47.8 152.1 47.8 146.4C47.8 139 58.7 126.7 68.8 123C83 117.6 95.5 116 119 116.5C148.6 117 185.1 125.3 209.6 136.9C240 151.4 258.2 172.9 266.1 203.7C267.1 207.9 268 212.6 268 214.1C268 216.6 271 220 273.1 220C273.5 220 274.8 217.4 276 214.2C281 201.8 286.5 193 289.3 193C289.8 193 290.1 196.9 290 201.7C289.6 218.8 289.8 219 300.4 211.9C308.3 206.7 315 203.4 315 204.8C315 206.3 309.4 213.3 304.1 218.5C301.3 221.2 299 223.8 299 224.3C299 225.6 306.5 224.3 310 222.5C317.3 218.7 326.7 204 325.8 197.8C325.6 195.9 324.8 195.4 321.8 195.2C319.7 195 316.5 195.3 314.7 195.8L311.2 196.8L310.6 192.2C310.3 189.8 310 185.2 310 182.1C310 167.7 301.9 145.7 286.1 116.5C270.6 87.8999 267.3 81.1999 263 68.0999C259.3 57.0999 256 41.9999 256 36.0999C256 30.7999 259.1 22.8999 262.7 18.8999C272.3 8.29989 292.3 4.69989 311.6 9.99989ZM389.5 233.7C396.4 236.2 405.5 241.1 411.8 245.8C415.5 248.6 416 247.8 412.8 244.2C410.9 242.1 411.9 242.4 418.8 246.1C432.7 253.4 444.3 263.8 449.1 273.1C451.7 278.3 451.5 279.2 448.1 277.2C445.7 275.9 444.9 275.8 443.6 276.9C442.2 278.1 442.3 278.6 444.1 282.3C445.3 284.5 448 288.6 450.2 291.4C454.8 297.1 457 301.7 457 305.4C457 308.5 455.7 309.4 451.1 309.2C445.2 309 444.7 309.8 446.1 316.9C447.8 325.6 446.8 341 444.1 348.1C442.9 351.2 440.4 355.4 438.5 357.3C434.6 361.3 434.3 362 436.5 362C437.3 362 438 362.3 438 362.6C438 364 426.5 385.4 421.4 393.5C389.9 443.1 351.9 466 295 469.6C274.3 470.8 237.1 462.5 215.5 451.8C198.4 443.2 184.9 430.6 177.1 416.1C174.8 411.6 173 407.7 173.1 407.5C173.3 407.3 179.1 405.5 186 403.5C199.6 399.5 208.4 395.9 206 395.3C205.2 395.1 201.4 395.8 197.5 396.8C193.7 397.9 186.6 399.8 181.8 401.1C175.6 402.8 172.8 403.2 172 402.4C171.4 401.8 170.6 397.4 170.3 392.6C170 387.8 169.3 383.7 168.8 383.4C166.9 382.2 163.9 384.4 161.3 389.1C159.7 391.8 158.2 394 157.8 394C156.7 394 155.9 385.9 156.2 377.5L156.5 369.5L165.5 369.2C182.2 368.6 203 372.1 214.7 377.4C219.7 379.7 219.9 379.8 219 377.9C217.2 374.6 210.1 370.1 203.1 367.9C197.6 366.1 193.3 365.6 177.3 365.2C166.6 365 158 364.4 158 363.8C158 361.7 165.2 344.6 170.8 333.4C180.9 313.3 199.1 287.9 213.3 274.1L217.9 269.7L218.6 272.6C223 290.9 244.6 305 268.5 305C285 305 298.9 299.2 309.3 288L315.5 281.3L319.7 286C324.7 291.6 335.1 297.3 344.1 299.5C366.8 304.8 392.2 295.2 401.1 277.9C403.8 272.5 404.8 261.9 403 256.4C399.9 246.5 390.7 237.2 379.2 232.3L373.5 229.9L378 230.6C380.5 230.9 385.7 232.4 389.5 233.7ZM249.8 236.7C243.1 243.5 241.6 250.2 244.9 257.6C250.6 270.2 269.6 275.3 284 268.2C296.7 261.9 300 248.2 291.3 238.1L287.7 233.8L293 236.5C298.9 239.5 306.9 247 309.4 251.9C310.6 254.2 311.1 258 311.2 265.3C311.3 274.1 311 276.1 309.1 279.9C302.5 292.6 286.5 301 268.5 301C242.4 301 222.8 284.6 224.3 263.9C225.1 252.3 231.7 243.2 244 236.5C252.5 232 254.3 232 249.8 236.7ZM274.5 236.5C278.4 240.3 277.7 245.1 272.9 247.5C268.7 249.7 264.7 249.4 261.6 246.5C256.3 241.6 260.1 234 268 234C271 234 272.7 234.6 274.5 236.5ZM368.2 235.1C386.2 239 398 251 398 265.7C398 272.5 397 275.4 392.6 281.7C380.8 298.8 349.1 302.5 330 289.2C320.6 282.7 315 271.3 316.6 262.1C317.6 256.9 321.3 250 325.3 246.2L328.8 242.8L327.3 247.5C323.3 259.5 333.1 269.8 349.3 270.8C363.2 271.6 372.6 265.9 375.1 255.2C376.6 248.2 371.4 239.5 363.5 235.9C358.9 233.8 360.6 233.5 368.2 235.1ZM354.4 239.1C359.6 243.2 356.4 251 349.4 251C347.7 251 345.1 250.1 343.6 248.9L341 246.9V248.9C341 250.6 340.4 251 338 251C335.5 251 335 250.6 335 248.6C335 246 337 244.7 339.5 245.6C340.6 246.1 341 245.5 341 243.7C341 240.5 345.2 237 349 237C350.5 237 352.9 237.9 354.4 239.1ZM485.3 379.5C497.3 382 506.9 389 512 399C515.3 405.5 517.9 417.4 518.2 426.8C518.3 434.6 518 436.3 515.1 443.3C500.2 478.5 466.5 501.7 414.5 512.5C383.8 518.9 366.9 512.8 325.1 480.4C324 479.5 327.6 477.2 331 476.6C334.9 476 335.1 476.1 342.2 483.4C356.9 498.2 378.9 505.1 406.8 503.7C434.8 502.2 459.5 493.5 474.4 479.8C482.4 472.6 486 466.7 486.9 459.8L487.5 454.6L495.5 452.3C501.5 450.7 504.2 449.4 506.2 447C511.7 440.9 509.3 440.1 494.7 443C482.1 445.5 476.3 445.2 465.2 441.8C453.4 438.2 444.9 431.5 440.1 422.1C437.1 416.3 434.8 405.6 435.6 401.2C436.4 396.5 440.2 389.7 443.6 387.1C447.1 384.3 456.1 381 464.5 379.5C473.8 377.8 477.2 377.8 485.3 379.5ZM433.5 428.8C437.3 435.8 444.7 443 451.9 446.9C458.1 450.2 471.2 454 476.2 454C479.8 454 479.8 455.2 476 462.8C472.3 470.1 462.8 479.3 453.8 484.4C445.1 489.2 431 493.7 418.8 495.6C393.4 499.5 366.4 493.4 352.2 480.5C343.6 472.7 343.5 473 355.8 467.1C368.2 461.1 385.3 449.9 395.8 441L403.1 434.8L411.3 438.7C415.8 440.9 425.8 447 433.5 452.2C447.6 461.8 453.8 465.5 454.6 464.7C455.6 463.8 447 453.2 441.8 449C438.7 446.5 430.3 441.3 423.1 437.5C415.9 433.6 410 430.1 410 429.7C410 429.2 413.3 425.3 417.2 420.9C421.2 416.5 424.9 412.2 425.4 411.3C426 410.1 426.8 411.5 428.5 416.7C429.7 420.5 431.9 426 433.5 428.8ZM191.8 446.5C201.7 454 202 453.6 184.2 454.3C167.6 455 156.1 456.9 142.3 461.5C133.5 464.4 114 473.6 114 474.8C114 475.3 115.4 477.8 117.2 480.5C121.3 486.7 128.6 492 145.7 501.1C161 509.3 170.4 517.1 174 524.6C176.8 530.3 176.3 532.1 169.5 540.8C159.2 554 142.3 564.2 116.9 572.5C102 577.4 101.4 577.4 91.8 574.4C85.9 572.5 80.8 566.8 78.4 559.6C76.9 555.2 76.8 553.6 77.9 547C80.9 529.5 86.2 517.8 94.6 510L100.4 504.8L106 505.3C110.3 505.7 115 507.6 126.9 513.7C135.4 518 144.4 523.1 146.9 525.1C156.5 532.5 159.3 534 163.8 534C167.9 534 168 533.9 166.9 531.9C164.4 527.1 157.2 520.6 146.1 513.1C126.4 499.7 107 481.6 101.8 471.5L99.7 467.6L104.1 463.7C113.8 455.1 129.2 450.2 161.5 445.4C171.4 444 179.7 442.6 179.9 442.4C181.5 440.8 186.5 442.6 191.8 446.5ZM204.7 463C212.8 464.3 224 467.8 224 469C224 469.5 221.1 473.7 217.6 478.2C202.7 497.6 192.1 516.5 186.1 534.5C183 543.8 179 561.8 179 566.4C179 569.2 177.6 569.9 176.7 567.5C176 565.8 166.1 560 163.8 560C160.9 560 161.7 558.7 167.3 554C176.6 546.3 182 537.4 182 529.9C182 524.4 178 516.1 172.5 510.2C167.3 504.5 160.9 500.4 141.8 490C129.2 483.2 125.1 479.8 126.8 477.7C130.3 473.5 149.4 466.3 164.5 463.6C173.9 461.9 195.9 461.6 204.7 463ZM258.3 475.6C267.4 477.8 277.5 479.5 283.5 479.9L293.5 480.5L296.3 490.8C297.9 496.5 299 501.4 298.7 501.7C298.1 502.3 291.1 499.1 285.8 495.8C279.8 492.1 279.2 494 283 504.9C287.8 519 288.9 525.9 289.6 546.8C290.2 563.7 290.6 566.4 292.2 568.6C293.8 570.6 294.5 570.8 296.2 569.9C298 568.9 298.2 568.2 297.7 563L297 557.2L304.8 556.3C317 555 335.7 555.5 343.4 557.4C355.3 560.2 362.3 564.5 368.1 572.4C371.7 577.2 371.8 581.7 368.8 589.7C366.1 597 359.9 603.1 348.3 610.1C343.4 613 337.5 616.9 335.1 618.8C331.1 622 330.9 622.5 332.5 623.6C334.5 625.1 340.1 625.8 355.5 626.5C374.7 627.5 398.2 633.7 410.5 641C419.4 646.4 432 656.9 437.3 663.5C443 670.4 450.4 684.9 449.5 687.2C448.1 690.9 438.5 692.2 429 690.1C415.6 687.1 405.4 681.9 389.8 670.3C374.2 658.7 358.2 648.6 351 645.7C341.9 642.2 328.9 639.6 304.5 636.5C281 633.6 277.8 632.9 277.2 631.2C277 630.5 278.4 629.3 280.4 628.5C286.9 625.8 284.1 621.3 274.9 619.6C269 618.6 248.1 618.7 238.5 620C205.3 624.1 176.2 634.9 149.4 652.9C135.1 662.4 128.4 668.1 103.4 691.7C69.2 724 51.1 735 32 735C25.3 735 24.2 734.4 23 730.1C21.4 724.1 24 716.3 31.1 706C53.3 673.6 82.7 652.4 126 637.7C130.1 636.3 140 634.2 148 633C165.7 630.5 170.3 629.3 169.4 627.7C169 627 164.8 621.5 160 615.5C155.2 609.4 150.1 602.5 148.7 600C144.7 592.9 142.7 584.6 143.3 577.2C143.9 568.9 145.8 566.8 153.5 566.2C160.8 565.6 167 568 173.2 573.8L178 578.3V587C178 600.4 180.7 600.9 185 588.4C187.2 582.1 188.6 572.9 190 555.9C191.9 533 196.1 522.5 212.6 499.4C218.4 491.2 224.8 481.4 226.9 477.7L230.5 470.8L236.8 471.4C240.2 471.7 249.9 473.6 258.3 475.6ZM131.3 600.3L142.1 602.5L144.6 606.9C145.9 609.3 149.3 614.1 152 617.5L157 623.8L150.3 624.5C146.5 624.9 137.4 627 130 629.1C113.9 633.8 106.1 634.7 100.5 632.7C95.5 631 94.6 627.2 98.1 623.4C100.7 620.6 104 619.5 113.4 618C117.2 617.4 121.2 616.4 122.3 615.8C124.2 614.8 123.9 614.3 117.2 608C113.2 604.4 110 600.6 110 599.7C110 597.3 117.7 597.5 131.3 600.3Z" fill="black"/>
<path d="M292 395.7C287.5 396.4 283 398.1 283 399.1C283 399.6 284.8 400 286.9 400C293.5 400 293.8 400.4 293.3 407.4C292.7 414.6 294.2 418.9 299 423.5C303 427.4 310.5 428.1 315.5 425.1L319.1 423L322.1 425.2C329.2 430.5 344.3 426.3 349.9 417.5L352.5 413.5L356.8 414.9C365.4 417.6 364.5 412.2 355.3 406C345.4 399.3 307.4 393.1 292 395.7ZM321.4 401.6C323.6 402.4 323.4 404.6 320.6 410.5C317.9 416.4 314.9 419.3 309.6 421.5C306.1 423 305.6 423 303.4 421.5C300.3 419.5 299 416.2 298.1 407.7L297.4 401H308.6C314.8 401 320.5 401.3 321.4 401.6ZM338 406.8C339.9 407.6 342.5 408.6 343.8 409.1C346.1 410 346.1 410 344.3 413.1C343.3 414.9 340.5 417.6 338 419.2C334.3 421.6 332.7 422.1 329.2 421.7C322.8 421 322.4 420.1 325.9 413.5C327.6 410.3 329 406.9 329 405.8C329 403.8 331.3 404 338 406.8Z" fill="black"/>
</svg>
