<svg width="4112" height="3398" viewBox="0 0 4112 3398" fill="none" xmlns="http://www.w3.org/2000/svg">
<rect width="4112" height="3398" fill="white"/>
<path d="M3123.35 2472.18C3116.93 2470.18 3110.5 2467.53 3104.88 2463.55C3010.92 2401.16 2942.65 2316.21 2873.58 2235.91C2802.1 2152.29 2720.18 2075.96 2642.28 1996.32C2600.52 1953.85 2560.36 1910.71 2520.21 1866.91C2494.51 1828.41 2467.2 1790.58 2439.09 1752.75C2455.15 1730.19 2470.41 1707.62 2484.87 1684.4C2484.87 1685.06 2485.67 1685.06 2485.67 1685.72C2565.18 1594.8 2646.3 1504.54 2731.43 1416.94C2882.42 1260.97 3037.42 1108.33 3185.19 951.039C3034.21 788.439 2890.45 621.858 2768.37 443.994C2733.84 503.061 2703.32 563.455 2674.41 624.512C2624.61 729.373 2571.61 832.905 2509.77 933.784C2422.23 1077.14 2328.26 1219.16 2227.87 1357.21L2231.08 1361.85C2223.85 1369.82 2216.63 1377.78 2209.4 1385.74C2194.14 1399.02 2178.88 1411.63 2164.42 1424.24C2143.54 1397.69 2122.66 1370.48 2100.98 1343.93C2097.76 1339.95 2095.35 1336.63 2092.14 1332.65C1963.64 1154.79 1840.76 973.604 1725.11 789.767C1680.94 719.418 1630.34 651.723 1582.96 582.037C1543.61 524.298 1497.03 461.913 1477.75 396.873C1317.12 468.55 1158.91 549.518 1032.02 658.36C1056.11 668.978 1078.6 681.588 1099.48 696.189C1178.18 750.61 1240.02 820.296 1302.67 887.327C1372.54 962.321 1446.43 1034 1517.1 1107.67C1662.47 1260.31 1800.61 1416.94 1944.37 1570.91C1945.17 1570.24 1945.97 1568.92 1946.77 1568.25C1966.05 1592.15 1985.33 1616.04 2007.81 1637.28C2002.19 1645.9 1996.57 1655.19 1990.95 1663.82C1977.29 1680.41 1964.44 1697.01 1951.59 1713.6C1950.79 1712.93 1949.99 1712.27 1949.18 1710.94C1831.93 1847.66 1706.64 1979.07 1571.72 2103.84C1434.38 2231.93 1287.41 2379.26 1104.3 2466.87C1109.12 2475.49 1109.92 2485.45 1106.71 2494.08C1178.99 2555.13 1276.17 2594.95 1344.43 2659.99C1407.88 2719.72 1464.1 2784.76 1529.15 2843.17C1595.81 2695.17 1705.03 2560.44 1818.27 2433.68C1931.52 2306.92 2048.77 2182.15 2162.01 2055.39C2182.09 2036.14 2200.56 2015.57 2219.03 1994.99C2239.92 1975.75 2261.6 1957.17 2280.07 1937.26C2313 1966.46 2343.52 1996.99 2379.66 2023.53C2457.56 2107.16 2532.25 2192.11 2601.32 2280.37C2744.28 2463.55 2843.87 2665.3 2973.17 2855.11C3049.47 2746.94 3136.2 2639.42 3177.16 2519.3C3162.71 2511.33 3149.05 2500.71 3133.79 2488.77C3129.78 2483.46 3125.76 2478.15 3123.35 2472.18Z" fill="#78B9EB"/>
<path d="M3128.18 2367.98H3127.38C3063.13 2315.55 3011.73 2253.17 2959.52 2192.11C2888.05 2107.82 2806.93 2032.17 2728.22 1952.53C2665.58 1888.81 2605.35 1823.77 2547.52 1757.41C2631.05 1661.84 2715.37 1566.27 2804.52 1474.02C2964.34 1308.76 3128.98 1146.83 3285.59 979.582C3298.44 965.645 3306.47 944.408 3292.02 929.143C3121.75 746.634 2958.72 558.814 2825.4 356.395C2826.2 355.067 2827.01 353.74 2827.81 353.076C2814.96 335.157 2803.72 315.911 2793.28 296.664C2787.65 288.7 2782.84 281.4 2777.21 273.436C2776.41 274.099 2774.8 274.099 2774 274.763C2761.95 280.072 2751.51 285.382 2741.07 290.691C2738.66 291.355 2737.06 292.018 2734.65 292.682C2725.01 320.556 2711.36 348.43 2693.69 372.986C2694.49 374.314 2695.3 374.977 2696.1 376.305C2596.51 534.259 2533.06 708.141 2437.49 868.085C2354.77 1006.13 2264.82 1142.18 2169.25 1275.58C2050.39 1110.33 1937.15 943.08 1829.53 773.18C1807.04 737.342 1782.95 702.167 1758.85 666.329C1719.5 621.2 1684.96 573.415 1659.26 522.312C1636.78 490.456 1614.29 457.273 1596.62 423.425C1566.91 381.614 1542.01 338.475 1516.31 295.337C1506.67 294.673 1497.03 296 1486.59 299.982C1293.84 382.941 1102.7 477.183 952.514 608.59C942.877 617.217 938.861 627.173 938.861 636.464C978.214 680.266 1015.96 725.396 1052.1 770.526C1097.88 803.709 1136.43 844.857 1172.57 882.686C1236.82 949.717 1303.48 1016.08 1366.93 1083.12C1457.68 1178.68 1549.24 1274.25 1639.19 1370.48C1722.71 1460.74 1802.22 1553.66 1886.55 1643.25C1774.11 1775.99 1652.04 1904.08 1522.73 2026.19C1444.83 2099.86 1363.71 2172.86 1280.19 2242.55C1208.71 2302.28 1131.61 2358.69 1043.27 2400.5C1041.66 2401.17 1039.25 2401.83 1037.65 2402.49L988.655 2423.73C955.727 2437.67 958.136 2465.54 977.411 2483.46C978.214 2490.1 980.624 2496.74 984.639 2502.05C1056.12 2586.33 1166.95 2634.78 1256.1 2703.8C1352.47 2779.46 1419.93 2877.02 1518.72 2952.01C1547.63 2973.92 1591.8 2961.97 1602.24 2931.44C1660.87 2762.87 1785.35 2611.55 1911.45 2472.18C2035.93 2334.14 2162.82 2197.42 2286.51 2058.71C2345.94 2121.76 2402.96 2186.14 2458.37 2251.84C2542.7 2352.72 2619 2458.24 2685.66 2567.75C2751.51 2674.6 2811.75 2784.11 2882.42 2888.97C2898.49 2913.52 2916.15 2938.08 2933.82 2961.97C2953.1 2988.52 3003.7 2987.85 3021.36 2959.98C3115.33 2813.31 3243.83 2672.61 3288 2508.02C3265.51 2492.09 3244.63 2476.16 3225.36 2460.23C3192.43 2433.69 3154.68 2402.49 3128.18 2367.98ZM2975.59 2855.12C2846.28 2665.97 2746.7 2463.55 2603.74 2280.38C2534.67 2192.11 2459.98 2107.16 2382.08 2023.54C2345.94 1996.99 2315.42 1966.46 2282.49 1937.26C2263.21 1957.17 2242.33 1976.42 2221.45 1995C2203.78 2015.57 2184.51 2036.15 2164.43 2055.39C2050.39 2182.16 1933.93 2306.26 1820.69 2433.69C1707.45 2559.78 1598.23 2694.51 1531.57 2843.17C1466.51 2784.77 1409.49 2719.73 1346.85 2660C1278.58 2594.96 1181.41 2555.14 1109.12 2494.08C1113.14 2485.45 1111.53 2475.5 1106.71 2466.87C1290.63 2379.93 1436.8 2231.93 1574.13 2103.84C1708.25 1979.07 1834.35 1847.66 1951.6 1710.95C1952.4 1711.61 1953.21 1712.28 1954.01 1713.6C1966.86 1697.01 1979.71 1680.42 1993.36 1663.83C1998.99 1655.2 2004.61 1645.91 2010.23 1637.28C1987.74 1616.04 1968.47 1592.15 1949.19 1568.26C1948.39 1568.92 1947.59 1570.25 1946.78 1570.91C1803.02 1417.61 1664.89 1260.32 1519.52 1107.67C1448.85 1033.34 1374.96 961.663 1305.09 887.332C1242.44 820.301 1180.6 751.279 1101.9 696.194C1081.01 681.594 1058.53 668.984 1034.43 658.365C1161.33 549.523 1319.54 468.555 1480.17 396.878C1499.44 461.918 1546.02 524.303 1585.38 582.043C1632.76 651.065 1682.56 719.423 1727.53 789.772C1843.18 973.609 1966.06 1154.79 2094.56 1332.66C2097.77 1336.64 2100.98 1339.96 2103.39 1343.94C2125.08 1370.48 2145.96 1397.03 2166.84 1424.24C2181.3 1410.97 2196.55 1398.36 2211.81 1385.75C2219.04 1377.79 2226.27 1369.82 2233.5 1361.86L2230.29 1357.21C2330.68 1218.5 2424.64 1077.14 2512.18 933.789C2574.02 832.911 2626.23 729.378 2676.82 624.518C2705.74 563.46 2736.25 503.066 2770.79 443.999C2892.86 621.863 3037.43 788.445 3187.61 951.044C3039.03 1108.33 2884.83 1261.64 2733.85 1416.94C2648.71 1505.21 2567.6 1594.81 2488.09 1685.73C2488.09 1685.07 2487.29 1685.07 2487.29 1684.4C2473.63 1707.63 2458.37 1730.2 2441.51 1752.76C2470.42 1789.93 2496.92 1827.75 2522.62 1866.91C2561.98 1910.71 2602.94 1953.85 2644.7 1996.33C2722.6 2075.97 2804.52 2151.63 2876 2235.91C2945.07 2316.22 3013.33 2401.17 3107.3 2463.55C3112.92 2467.53 3119.35 2470.19 3125.77 2472.18C3128.18 2478.15 3132.2 2483.46 3138.62 2488.77C3153.08 2500.72 3166.73 2511.34 3181.99 2519.3C3137.82 2639.43 3051.08 2746.94 2975.59 2855.12Z" fill="black"/>
</svg>
