<svg width="3537" height="3537" viewBox="0 0 3537 3537" fill="none" xmlns="http://www.w3.org/2000/svg">
<path d="M2810.69 323.798L3187.02 700.126C3228.48 741.583 3251.77 797.811 3251.77 856.44C3251.77 915.07 3228.48 971.298 3187.02 1012.76L2984.59 1215.18L2295.64 526.225L2498.06 323.798C2539.52 282.34 2595.75 259.05 2654.38 259.05C2713.01 259.05 2769.24 282.34 2810.69 323.798V323.798Z" fill="#78B9EB"/>
<path d="M2162.21 490.671L3046.56 1375.02L2680.78 1740.8L1796.43 856.448L2162.21 490.671Z" fill="#C2CDE7"/>
<path d="M1886.03 932.58L2604.29 1650.85L1022.39 3232.75L304.121 2514.49L1886.03 932.58Z" fill="#F9E3AE"/>
<path d="M2355.75 1402.37L2604.29 1650.91L1022.39 3232.81L773.845 2984.27L2355.75 1402.37Z" fill="#F6D397"/>
<path d="M276.328 3150.14L331.594 2542.22L718.453 2597.48L773.719 2763.28L935.094 2846.18L1050.05 3260.67H386.859L276.328 3150.14Z" fill="#FAEFDE"/>
<path d="M1886.01 932.566L2134.55 1181.11L552.645 2763.01L304.104 2514.47L1886.01 932.566Z" fill="#FAEFDE"/>
<path d="M3348.55 878.726C3348.57 849.687 3342.87 820.928 3331.77 794.092C3320.68 767.256 3304.41 742.869 3283.88 722.324L2814.68 253.672C2772.6 213.341 2716.56 190.825 2658.28 190.825C2599.99 190.825 2543.96 213.341 2501.88 253.672L2265.89 487.998C2255.63 477.721 2243.44 469.568 2230.02 464.006C2216.6 458.444 2202.22 455.58 2187.69 455.58C2173.16 455.58 2158.78 458.444 2145.36 464.006C2131.95 469.568 2119.75 477.721 2109.49 487.998L1796.69 800.801C1786.41 811.067 1778.26 823.257 1772.69 836.675C1767.13 850.093 1764.27 864.477 1764.27 879.002C1764.27 893.528 1767.13 907.911 1772.69 921.329C1778.26 934.747 1786.41 946.938 1796.69 957.203L1799.45 959.966L305.067 2453.8C277.212 2481.62 260.168 2518.45 256.986 2557.7L221.063 3021.93L182.377 3293.83C181.263 3301.71 181.863 3309.74 184.137 3317.36C186.411 3324.99 190.305 3332.04 195.552 3338.02C200.799 3344 207.277 3348.78 214.541 3352.03C221.806 3355.27 229.686 3356.91 237.643 3356.84H243.17L515.076 3315.94L982.071 3281.67C1021.7 3278.75 1058.97 3261.69 1087.08 3233.59L2583.67 1741.42C2604.25 1761.18 2631.68 1772.21 2660.21 1772.21C2688.74 1772.21 2716.17 1761.18 2736.75 1741.42L3049.56 1428.62C3059.83 1418.35 3067.99 1406.16 3073.55 1392.74C3079.11 1379.33 3081.98 1364.94 3081.98 1350.42C3081.98 1335.89 3079.11 1321.51 3073.55 1308.09C3067.99 1294.67 3059.83 1282.48 3049.56 1272.22L3283.88 1037.89C3304.74 1017.02 3321.2 992.182 3332.31 964.846C3343.41 937.511 3348.93 908.229 3348.55 878.726V878.726ZM657.662 2647.23L689.716 2806.39C691.882 2817.01 697.123 2826.76 704.788 2834.43C712.453 2842.09 722.202 2847.33 732.823 2849.5L891.988 2881.55L951.122 3176.67L529.998 3205.41L331.595 3007L365.307 2586.99L657.662 2647.23ZM1050.05 3114.22L994.782 2850.6L1916.06 1934.3C1925.11 1923.73 1929.85 1910.13 1929.31 1896.22C1928.77 1882.31 1923 1869.12 1913.16 1859.27C1903.32 1849.43 1890.13 1843.66 1876.22 1843.13C1862.31 1842.59 1848.71 1847.32 1838.14 1856.37L920.726 2772.68L790.299 2746.7L764.324 2616.28L1524.78 1855.82C1533.83 1845.25 1538.56 1831.65 1538.03 1817.74C1537.49 1803.83 1531.72 1790.64 1521.88 1780.8C1512.04 1770.95 1498.84 1765.19 1484.94 1764.65C1471.03 1764.11 1457.43 1768.84 1446.85 1777.9L686.4 2538.35L428.309 2486.96L1879.03 1037.89L2504.64 1662.94L1050.05 3114.22ZM2892.6 1425.86C2882.25 1415.56 2868.24 1409.78 2853.64 1409.78C2839.04 1409.78 2825.03 1415.56 2814.68 1425.86L2736.75 1503.78C2726.46 1514.13 2720.68 1528.14 2720.68 1542.74C2720.68 1557.34 2726.46 1571.35 2736.75 1581.7V1581.7L2658.28 1657.97L1879.03 878.726L1956.96 800.801C1967.31 811.095 1981.32 816.872 1995.92 816.872C2010.52 816.872 2024.53 811.095 2034.88 800.801L2112.81 722.877C2123.1 712.522 2128.88 698.515 2128.88 683.914C2128.88 669.314 2123.1 655.307 2112.81 644.952L2190.73 567.028L2229.97 606.266L2931.84 1308.69L2971.08 1347.93L2892.6 1425.86ZM3205.41 956.65L2971.08 1190.98L2345.47 565.922L2580.35 331.596C2590.62 321.319 2602.81 313.167 2616.23 307.604C2629.65 302.042 2644.03 299.179 2658.55 299.179C2673.08 299.179 2687.46 302.042 2700.88 307.604C2714.3 313.167 2726.49 321.319 2736.75 331.596L3205.41 800.801C3215.68 811.067 3223.84 823.257 3229.4 836.675C3234.96 850.093 3237.82 864.477 3237.82 879.002C3237.82 893.528 3234.96 907.911 3229.4 921.329C3223.84 934.747 3215.68 946.938 3205.41 957.203V956.65Z" fill="black"/>
<path d="M2228.31 839.48L2150.39 917.405C2144.3 922.271 2139.32 928.367 2135.76 935.295C2132.2 942.222 2130.14 949.824 2129.73 957.602C2129.31 965.379 2130.54 973.157 2133.34 980.425C2136.14 987.693 2140.45 994.288 2145.97 999.776C2151.5 1005.26 2158.12 1009.52 2165.41 1012.27C2172.7 1015.02 2180.49 1016.19 2188.26 1015.72C2196.04 1015.25 2203.62 1013.14 2210.52 1009.53C2217.43 1005.92 2223.49 1000.89 2228.31 994.777L2306.23 916.852C2315.29 906.28 2320.02 892.68 2319.48 878.771C2318.94 864.862 2313.18 851.668 2303.34 841.826C2293.49 831.983 2280.3 826.217 2266.39 825.68C2252.48 825.143 2238.88 829.874 2228.31 838.928V839.48ZM2423.95 1035.12L2346.03 1113.05C2340.24 1118 2335.54 1124.1 2332.22 1130.95C2328.91 1137.81 2327.04 1145.28 2326.75 1152.89C2326.45 1160.5 2327.74 1168.09 2330.52 1175.18C2333.29 1182.27 2337.51 1188.71 2342.89 1194.1C2348.28 1199.49 2354.72 1203.7 2361.81 1206.48C2368.91 1209.26 2376.5 1210.54 2384.11 1210.25C2391.72 1209.95 2399.19 1208.09 2406.04 1204.77C2412.9 1201.45 2419 1196.76 2423.95 1190.97L2501.87 1113.05C2510.93 1102.47 2515.66 1088.87 2515.12 1074.96C2514.59 1061.06 2508.82 1047.86 2498.98 1038.02C2489.13 1028.18 2475.94 1022.41 2462.03 1021.87C2448.12 1021.34 2434.52 1026.07 2423.95 1035.12V1035.12ZM2619.04 1230.21L2542.22 1308.69C2536.43 1313.64 2531.73 1319.74 2528.42 1326.59C2525.1 1333.45 2523.24 1340.92 2522.94 1348.53C2522.65 1356.14 2523.93 1363.73 2526.71 1370.82C2529.49 1377.91 2533.7 1384.35 2539.09 1389.74C2544.47 1395.13 2550.91 1399.34 2558.01 1402.12C2565.1 1404.9 2572.69 1406.18 2580.3 1405.89C2587.91 1405.59 2595.38 1403.73 2602.24 1400.41C2609.09 1397.09 2615.19 1392.4 2620.14 1386.61L2698.07 1308.69C2707.12 1298.11 2711.85 1284.51 2711.32 1270.6C2710.78 1256.7 2705.01 1243.5 2695.17 1233.66C2685.33 1223.82 2672.13 1218.05 2658.22 1217.51C2644.32 1216.98 2630.72 1221.71 2620.14 1230.76L2619.04 1230.21ZM1759.66 1465.09L1602.7 1620.94C1596.92 1625.89 1592.22 1631.99 1588.9 1638.84C1585.58 1645.7 1583.72 1653.17 1583.43 1660.78C1583.13 1668.39 1584.41 1675.98 1587.19 1683.07C1589.97 1690.16 1594.19 1696.61 1599.57 1701.99C1604.96 1707.38 1611.4 1711.59 1618.49 1714.37C1625.58 1717.15 1633.17 1718.43 1640.78 1718.14C1648.39 1717.84 1655.86 1715.98 1662.72 1712.66C1669.58 1709.34 1675.67 1704.65 1680.63 1698.86L1837.03 1542.46C1846.08 1531.89 1850.81 1518.29 1850.28 1504.38C1849.74 1490.47 1843.97 1477.28 1834.13 1467.43C1824.29 1457.59 1811.09 1451.82 1797.19 1451.29C1783.28 1450.75 1769.68 1455.48 1759.1 1464.53L1759.66 1465.09Z" fill="black"/>
</svg>
