<svg width="3474" height="2138" viewBox="0 0 3474 2138" fill="none" xmlns="http://www.w3.org/2000/svg">
<path d="M2405.34 51.2266C2149.54 51.2266 1324.46 51.2266 1068.66 51.2266C506.559 51.2266 50.8887 506.897 50.8887 1069C50.8887 1631.1 506.559 2086.77 1068.66 2086.77H2405.34C2967.44 2086.77 3423.11 1631.1 3423.11 1069C3423.11 506.897 2967.44 51.2266 2405.34 51.2266Z" fill="#ACD5DF"/>
<path d="M1068.66 254.781C619.702 254.781 254.443 620.04 254.443 1069C254.443 1517.96 619.702 1883.22 1068.66 1883.22H1699.41V254.781H1068.66Z" fill="#78B9EB"/>
<path d="M2405.34 254.781H1699.41C1505.62 471.017 1387.56 756.462 1387.56 1069C1387.56 1381.54 1505.62 1666.98 1699.41 1883.22H2405.34V254.781Z" fill="#1E81CE"/>
<path d="M2405.34 254.781V1883.22C2855.02 1883.22 3219.56 1518.68 3219.56 1069C3219.56 619.321 2855.02 254.781 2405.34 254.781Z" fill="#C4F3FF"/>
<path d="M3016 1069C3016 619.321 2742.6 254.781 2405.34 254.781C1955.66 254.781 1591.12 619.321 1591.12 1069C1591.12 1518.68 1955.66 1883.22 2405.34 1883.22C2742.6 1883.22 3016 1518.68 3016 1069Z" fill="white"/>
<path d="M2405.34 203.893H1068.66C874.566 203.893 691.122 266.737 538.178 385.633C515.984 402.881 511.981 434.853 529.235 457.04C539.271 469.945 554.273 476.697 569.444 476.697C580.355 476.697 591.354 473.195 600.642 465.983C735.558 361.105 897.398 305.67 1068.66 305.67H1998.59C1726.08 451.469 1540.23 738.923 1540.23 1069C1540.23 1399.08 1726.08 1686.53 1998.59 1832.33H1068.66C647.765 1832.33 305.332 1489.9 305.332 1069C305.332 897.736 360.767 735.896 465.645 600.974C482.9 578.779 478.89 546.814 456.702 529.567C434.515 512.319 402.55 516.315 385.295 538.509C266.399 691.46 203.555 874.904 203.555 1069C203.555 1546.02 591.638 1934.11 1068.66 1934.11H2405.34C2882.36 1934.11 3270.45 1546.02 3270.45 1069C3270.45 591.976 2882.36 203.893 2405.34 203.893ZM2405.34 1832.33C1984.44 1832.33 1642.01 1489.9 1642.01 1069C1642.01 648.096 1984.44 305.67 2405.34 305.67C2826.23 305.67 3168.67 648.096 3168.67 1069C3168.67 1489.9 2826.23 1832.33 2405.34 1832.33Z" fill="black"/>
<path d="M2405.34 0.337891H1068.66C479.398 0.337891 0 479.736 0 1069C0 1658.26 479.398 2137.66 1068.66 2137.66H2405.34C2994.6 2137.66 3474 1658.26 3474 1069C3474 479.736 2994.6 0.337891 2405.34 0.337891ZM2405.34 2035.88H1068.66C535.518 2035.88 101.777 1602.14 101.777 1069C101.777 535.856 535.518 102.115 1068.66 102.115H2405.34C2938.48 102.115 3372.22 535.856 3372.22 1069C3372.22 1602.14 2938.48 2035.88 2405.34 2035.88Z" fill="black"/>
</svg>
