<svg width="504" height="504" viewBox="0 0 504 504" fill="none" xmlns="http://www.w3.org/2000/svg">
<path d="M477.6 216H288V26.8C288 13.6 277.2 4 264 4H240C226.8 4 216 13.6 216 26.8V216H26.4C13.2 216 4 227.2 4 240V264C4 277.2 13.6 288 26.4 288H216V478C216 491.2 227.2 500 240 500H264C277.2 500 288 490.8 288 478V288H477.6C490.8 288 500 277.2 500 264V240C500 227.2 490.8 216 477.6 216Z" fill="#1E81CE"/>
<path d="M432 236H268V73.9999V46.3999V33.1999C268 27.5999 263.2 24.3999 257.2 24.3999H246.4C240.8 24.3999 235.6 27.5999 235.6 33.1999V236H32.3996C26.7996 236 23.5996 241.2 23.5996 246.8V257.6C23.5996 263.2 26.7996 268 32.3996 268H235.6V471.2C235.6 476.8 240.8 480 246.4 480H257.2C262.8 480 268 477.2 268 471.2V268H471.2C476.8 268 480 263.2 480 257.6V246.8C480 241.2 476.8 236 471.2 236H456" fill="#78B9EB"/>
<path d="M266 504H242C226.4 504 212 490.8 212 476V292H28.4C13.6 292 0 277.6 0 262V238C0 223.2 12.4 212 28.4 212H212V24.8C212 8.8 227.6 0 242 0H266C281.6 0 292 10 292 24.8V212H479.6C494.4 212 504 222.4 504 238V262C504 276.4 495.6 292 479.6 292H292V476C292 492 280.8 504 266 504ZM28.4 220C18.4 220 8 226.8 8 238V262C8 273.2 18 284 28.4 284H216C218.4 284 220 285.6 220 288V476C220 486.4 230.8 496 242 496H266C276.4 496 284 487.2 284 476V288C284 285.6 285.6 284 288 284H479.6C490.4 284 496 272.8 496 262V238C496 226.4 490 220 479.6 220H288C285.6 220 284 218.4 284 216V24.8C284 14.4 277.2 8 266 8H242C231.2 8 220 14.4 220 24.8V216C220 218.4 218.4 220 216 220H28.4Z" fill="black"/>
<path d="M258.8 482.8H247.2C238.4 482.8 230.4 475.6 230.4 467.2V270H37.5996C29.1996 270 21.5996 262 21.5996 253.6V242C21.5996 233.6 28.3996 227.2 37.5996 227.2H230.4V30.7998C230.4 21.5998 238.8 16.7998 247.2 16.7998H258.8C267.6 16.7998 273.6 22.3998 273.6 30.7998V142.4C273.6 144.8 272 146.4 269.6 146.4C267.2 146.4 265.6 144.8 265.6 142.4V30.7998C265.6 25.5998 261.2 24.7998 258.8 24.7998H247.2C242.8 24.7998 238.4 27.1998 238.4 30.7998V231.2C238.4 233.6 236.8 235.2 234.4 235.2H37.5996C33.5996 235.2 29.5996 237.6 29.5996 242V253.6C29.5996 258 33.5996 262 37.5996 262H234.4C236.8 262 238.4 263.6 238.4 266V467.2C238.4 471.2 242.8 474.8 247.2 474.8H258.8C263.2 474.8 265.6 470.8 265.6 467.2V266C265.6 263.6 267.2 262 269.6 262H472.4C476.4 262 478.4 257.6 478.4 253.6V242C478.4 238.8 477.2 235.2 472.4 235.2H406.8C404.4 235.2 402.8 233.6 402.8 231.2C402.8 228.8 404.4 227.2 406.8 227.2H472.4C480.8 227.2 486.4 233.2 486.4 242V253.6C486.4 261.6 481.6 270 472.4 270H273.6V467.2C273.6 476 267.2 482.8 258.8 482.8Z" fill="black"/>
</svg>
